<?xml version="1.0" encoding="UTF-8"?>
<!DOCTYPE svg PUBLIC "-//W3C//DTD SVG 1.1//EN" "http://www.w3.org/Graphics/SVG/1.1/DTD/svg11.dtd">
<svg xmlns="http://www.w3.org/2000/svg" version="1.1" width="409px" height="377px" style="shape-rendering:geometricPrecision; text-rendering:geometricPrecision; image-rendering:optimizeQuality; fill-rule:evenodd; clip-rule:evenodd" xmlns:xlink="http://www.w3.org/1999/xlink">
<g><path style="opacity:1" fill="#fdfdfd" d="M -0.5,-0.5 C 135.833,-0.5 272.167,-0.5 408.5,-0.5C 408.5,125.167 408.5,250.833 408.5,376.5C 272.167,376.5 135.833,376.5 -0.5,376.5C -0.5,250.833 -0.5,125.167 -0.5,-0.5 Z"/></g>
<g><path style="opacity:1" fill="#3a3a3a" d="M 215.5,33.5 C 207.483,33.5012 199.483,33.8345 191.5,34.5C 196.077,33.0103 200.91,32.3437 206,32.5C 209.352,32.5018 212.518,32.8351 215.5,33.5 Z"/></g>
<g><path style="opacity:1" fill="#0a0a0a" d="M 215.5,33.5 C 219.853,33.7646 224.187,34.2646 228.5,35C 232.44,36.5921 236.44,38.0921 240.5,39.5C 240.973,40.9063 241.973,41.573 243.5,41.5C 255.959,47.9528 266.293,56.9528 274.5,68.5C 281.831,69.3143 289.165,69.981 296.5,70.5C 297.93,71.5375 299.597,72.2041 301.5,72.5C 305.325,74.0422 309.325,75.3755 313.5,76.5C 339.049,87.3796 354.715,106.38 360.5,133.5C 361.803,143.829 361.803,154.162 360.5,164.5C 359.699,166.042 359.366,167.708 359.5,169.5C 358.076,171.515 357.41,173.848 357.5,176.5C 348.103,200.23 331.436,216.564 307.5,225.5C 302.715,226.509 298.048,227.509 293.5,228.5C 292.167,228.5 290.833,228.5 289.5,228.5C 289.82,263.21 289.486,297.877 288.5,332.5C 287.711,332.783 287.044,333.283 286.5,334C 235.163,334.833 183.83,334.667 132.5,333.5C 131.855,332.354 131.022,331.354 130,330.5C 129.5,291.835 129.333,253.168 129.5,214.5C 124.968,214.818 120.634,214.485 116.5,213.5C 111.874,211.168 106.874,209.835 101.5,209.5C 98.8427,209.065 96.5093,208.065 94.5,206.5C 94.0269,205.094 93.0269,204.427 91.5,204.5C 73.6482,194.818 61.9816,180.151 56.5,160.5C 54.9629,151.574 54.2962,142.574 54.5,133.5C 58.7601,106.265 73.4268,87.2648 98.5,76.5C 101.346,76.4484 103.68,75.4484 105.5,73.5C 105.833,73.5 106.167,73.5 106.5,73.5C 118.245,71.5799 129.912,70.2466 141.5,69.5C 153.214,50.7907 169.88,39.124 191.5,34.5C 199.483,33.8345 207.483,33.5012 215.5,33.5 Z"/></g>
<g><path style="opacity:1" fill="#6b6b6b" d="M 240.5,39.5 C 242.027,39.427 243.027,40.0937 243.5,41.5C 241.973,41.573 240.973,40.9063 240.5,39.5 Z"/></g>
<g><path style="opacity:1" fill="#fdfdfd" d="M 196.5,46.5 C 206.266,46.0915 215.933,46.7582 225.5,48.5C 228.939,50.2043 232.605,51.5376 236.5,52.5C 247.732,57.9556 256.732,65.9556 263.5,76.5C 263.427,78.0269 264.094,79.0269 265.5,79.5C 266.364,80.6883 267.364,81.8549 268.5,83C 278.213,83.2173 287.88,83.7173 297.5,84.5C 299.936,85.871 302.603,86.871 305.5,87.5C 340.767,103.368 354.267,130.368 346,168.5C 337.59,192.576 321.09,208.076 296.5,215C 291.167,215.333 285.833,215.667 280.5,216C 279.333,217.167 278.167,218.333 277,219.5C 276.5,240.164 276.333,260.831 276.5,281.5C 232.167,281.5 187.833,281.5 143.5,281.5C 143.667,256.164 143.5,230.831 143,205.5C 141.926,204.382 140.76,203.382 139.5,202.5C 132.198,201.455 124.865,200.788 117.5,200.5C 115.898,198.926 113.898,198.259 111.5,198.5C 92.4527,193.317 79.1194,181.651 71.5,163.5C 69.2116,152.971 68.2116,142.305 68.5,131.5C 68.4054,128.303 69.0721,125.303 70.5,122.5C 73.2011,119.765 74.8678,116.431 75.5,112.5C 81.3405,102.83 89.3405,95.3301 99.5,90C 105.468,87.8177 111.468,85.9844 117.5,84.5C 124.485,83.9115 131.485,83.5782 138.5,83.5C 141.518,83.6646 144.518,83.498 147.5,83C 153.59,72.0756 161.924,63.2422 172.5,56.5C 174.848,56.4077 176.514,55.4077 177.5,53.5C 178.514,52.3263 179.847,51.6596 181.5,51.5C 186.854,50.6439 191.854,48.9772 196.5,46.5 Z"/></g>
<g><path style="opacity:1" fill="#676767" d="M 225.5,48.5 C 229.708,48.677 233.374,50.0103 236.5,52.5C 232.605,51.5376 228.939,50.2043 225.5,48.5 Z"/></g>
<g><path style="opacity:1" fill="#a3a3a3" d="M 196.5,46.5 C 191.854,48.9772 186.854,50.6439 181.5,51.5C 186.085,48.8605 191.085,47.1938 196.5,46.5 Z"/></g>
<g><path style="opacity:1" fill="#a1a1a1" d="M 177.5,53.5 C 176.514,55.4077 174.848,56.4077 172.5,56.5C 173.659,54.7497 175.326,53.7497 177.5,53.5 Z"/></g>
<g><path style="opacity:1" fill="#444444" d="M 141.5,69.5 C 129.912,70.2466 118.245,71.5799 106.5,73.5C 110.591,71.9168 114.924,70.7502 119.5,70C 126.826,69.5003 134.159,69.3337 141.5,69.5 Z"/></g>
<g><path style="opacity:1" fill="#8f8f8f" d="M 296.5,70.5 C 299.152,70.4095 301.485,71.0762 303.5,72.5C 302.833,72.5 302.167,72.5 301.5,72.5C 299.597,72.2041 297.93,71.5375 296.5,70.5 Z"/></g>
<g><path style="opacity:1" fill="#383838" d="M 301.5,72.5 C 302.167,72.5 302.833,72.5 303.5,72.5C 305.746,73.2096 308.08,73.7096 310.5,74C 311.942,74.3768 312.942,75.2101 313.5,76.5C 309.325,75.3755 305.325,74.0422 301.5,72.5 Z"/></g>
<g><path style="opacity:1" fill="#5e5e5e" d="M 105.5,73.5 C 103.68,75.4484 101.346,76.4484 98.5,76.5C 100.509,74.9348 102.843,73.9348 105.5,73.5 Z"/></g>
<g><path style="opacity:1" fill="#7c7c7c" d="M 263.5,76.5 C 264.906,76.9731 265.573,77.9731 265.5,79.5C 264.094,79.0269 263.427,78.0269 263.5,76.5 Z"/></g>
<g><path style="opacity:1" fill="#9a9a9a" d="M 138.5,83.5 C 131.485,83.5782 124.485,83.9115 117.5,84.5C 124.443,82.5036 131.443,82.1702 138.5,83.5 Z"/></g>
<g><path style="opacity:1" fill="#5d5d5d" d="M 297.5,84.5 C 300.716,84.3455 303.383,85.3455 305.5,87.5C 302.603,86.871 299.936,85.871 297.5,84.5 Z"/></g>
<g><path style="opacity:1" fill="#0a0a0a" d="M 328.5,131.5 C 330.159,138.378 330.825,145.378 330.5,152.5C 326.786,156.481 322.953,156.481 319,152.5C 318.871,134.205 310.705,121.205 294.5,113.5C 292.485,112.076 290.152,111.41 287.5,111.5C 280.061,113.569 275.728,110.902 274.5,103.5C 275.227,99.1186 277.894,97.1186 282.5,97.5C 304.71,99.5982 320.043,110.932 328.5,131.5 Z"/></g>
<g><path style="opacity:1" fill="#606060" d="M 287.5,111.5 C 290.152,111.41 292.485,112.076 294.5,113.5C 291.848,113.59 289.515,112.924 287.5,111.5 Z"/></g>
<g><path style="opacity:1" fill="#b4b4b4" d="M 75.5,112.5 C 74.8678,116.431 73.2011,119.765 70.5,122.5C 71.3666,118.671 73.0332,115.337 75.5,112.5 Z"/></g>
<g><path style="opacity:1" fill="#565656" d="M 328.5,131.5 C 329.41,133.019 330.243,134.685 331,136.5C 331.817,142.016 331.651,147.35 330.5,152.5C 330.825,145.378 330.159,138.378 328.5,131.5 Z"/></g>
<g><path style="opacity:1" fill="#a6a6a6" d="M 54.5,133.5 C 54.2962,142.574 54.9629,151.574 56.5,160.5C 54.9823,157.466 54.1489,154.133 54,150.5C 53.1816,144.651 53.3483,138.985 54.5,133.5 Z"/></g>
<g><path style="opacity:1" fill="#888888" d="M 360.5,133.5 C 361.268,134.263 361.768,135.263 362,136.5C 362.167,140.5 362.333,144.5 362.5,148.5C 362.724,154.098 362.057,159.431 360.5,164.5C 361.803,154.162 361.803,143.829 360.5,133.5 Z"/></g>
<g><path style="opacity:1" fill="#bebebe" d="M 68.5,131.5 C 68.2116,142.305 69.2116,152.971 71.5,163.5C 70.0188,160.393 68.8521,157.059 68,153.5C 67.1782,145.988 67.3448,138.655 68.5,131.5 Z"/></g>
<g><path style="opacity:1" fill="#8a8a8a" d="M 359.5,169.5 C 359.59,172.152 358.924,174.485 357.5,176.5C 357.41,173.848 358.076,171.515 359.5,169.5 Z"/></g>
<g><path style="opacity:1" fill="#787878" d="M 111.5,198.5 C 113.898,198.259 115.898,198.926 117.5,200.5C 115.102,200.741 113.102,200.074 111.5,198.5 Z"/></g>
<g><path style="opacity:1" fill="#6c6c6c" d="M 91.5,204.5 C 93.0269,204.427 94.0269,205.094 94.5,206.5C 92.9731,206.573 91.9731,205.906 91.5,204.5 Z"/></g>
<g><path style="opacity:1" fill="#3e3e3e" d="M 101.5,209.5 C 106.874,209.835 111.874,211.168 116.5,213.5C 111.261,212.659 106.261,211.326 101.5,209.5 Z"/></g>
<g><path style="opacity:1" fill="#bcbcbc" d="M 307.5,225.5 C 307.389,226.117 307.056,226.617 306.5,227C 302.23,228.075 297.897,228.575 293.5,228.5C 298.048,227.509 302.715,226.509 307.5,225.5 Z"/></g>
<g><path style="opacity:1" fill="#a2a2a2" d="M 293.5,228.5 C 292.791,229.404 291.791,229.737 290.5,229.5C 290.667,263.502 290.5,297.502 290,331.5C 289.617,332.056 289.117,332.389 288.5,332.5C 289.486,297.877 289.82,263.21 289.5,228.5C 290.833,228.5 292.167,228.5 293.5,228.5 Z"/></g>
<g><path style="opacity:1" fill="#141414" d="M 252.5,235.5 C 256.516,234.9 260.016,235.9 263,238.5C 263.667,249.167 263.667,259.833 263,270.5C 258.62,275.749 254.287,275.749 250,270.5C 249.333,260.167 249.333,249.833 250,239.5C 251.095,238.307 251.928,236.973 252.5,235.5 Z"/></g>
<g><path style="opacity:1" fill="#bdbdbd" d="M 143.5,294.5 C 187.833,294.5 232.167,294.5 276.5,294.5C 276.5,303.5 276.5,312.5 276.5,321.5C 232.167,321.5 187.833,321.5 143.5,321.5C 143.5,312.5 143.5,303.5 143.5,294.5 Z"/></g>
<g><path style="opacity:1" fill="#fefefe" d="M 144.5,295.5 C 188.167,295.5 231.833,295.5 275.5,295.5C 275.5,303.833 275.5,312.167 275.5,320.5C 231.833,320.5 188.167,320.5 144.5,320.5C 144.5,312.167 144.5,303.833 144.5,295.5 Z"/></g>
</svg>
