<?xml version="1.0" encoding="iso-8859-1"?>
<!-- Uploaded to: SVG Repo, www.svgrepo.com, Generator: SVG Repo Mixer Tools -->
<svg fill="#000000" height="800px" width="800px" version="1.1" id="Layer_1" xmlns="http://www.w3.org/2000/svg" xmlns:xlink="http://www.w3.org/1999/xlink" 
	 viewBox="0 0 512 512" xml:space="preserve">
<g>
	<g>
		<path d="M351.752,282.266c21.544-50.57,36.591-112.22,36.591-149.923C388.343,59.369,328.974,0,256,0
			S123.657,59.369,123.657,132.343c0,37.703,15.047,99.353,36.591,149.923c12.534,29.419,30.271,62.419,52.661,82.589v52.038
			c-21.429,4.874-37.531,24.158-37.531,46.955c0,26.551,21.601,48.151,48.153,48.151c12.281,0,23.736-4.54,32.47-12.55
			c8.734,8.01,20.189,12.55,32.47,12.55c26.552,0,48.152-21.601,48.152-48.151c0-22.797-16.102-42.081-37.531-46.955v-52.038
			C321.481,344.685,339.218,311.684,351.752,282.266z M316.224,463.848c0,15.303-12.45,27.753-27.754,27.753
			c-9.787,0-18.666-5.004-23.75-13.385c-1.849-3.048-5.156-4.909-8.72-4.909c-3.565,0-6.87,1.861-8.72,4.909
			c-5.084,8.383-13.963,13.386-23.75,13.386c-15.304,0-27.754-12.45-27.754-27.753c0-15.132,12.31-27.578,27.443-27.743
			c5.588-0.061,10.088-4.61,10.088-10.199v-47.254c7.198,3.296,14.764,5.146,22.693,5.146c7.929,0,15.496-1.85,22.693-5.146v47.254
			c0,5.589,4.499,10.137,10.088,10.198C303.914,436.27,316.224,448.716,316.224,463.848z M256.001,363.402
			c-24.792,0-52.854-32.488-76.986-89.131c-22.951-53.871-34.959-112.176-34.959-141.928C144.056,70.616,194.273,20.398,256,20.398
			c61.727,0,111.944,50.218,111.944,111.944c0,29.752-12.008,88.057-34.959,141.928
			C308.854,330.914,280.793,363.402,256.001,363.402z"/>
	</g>
</g>
<g>
	<g>
		<path d="M354.762,124.621c-0.458-5.614-5.379-9.798-10.995-9.336c-5.615,0.458-9.795,5.38-9.336,10.994
			c0.173,2.133,0.262,4.309,0.262,6.468c0,5.633,4.567,10.199,10.199,10.199c5.632,0,10.199-4.566,10.199-10.199
			C355.091,130.037,354.981,127.302,354.762,124.621z"/>
	</g>
</g>
<g>
	<g>
		<path d="M346.183,91.635c-16.08-35.22-51.479-57.977-90.183-57.977c-5.632,0-10.199,4.566-10.199,10.199
			c0,5.633,4.567,10.199,10.199,10.199c30.74,0,58.855,18.076,71.628,46.051c1.712,3.751,5.414,5.966,9.284,5.966
			c1.418,0,2.857-0.297,4.23-0.924C346.265,102.81,348.523,96.759,346.183,91.635z"/>
	</g>
</g>
</svg>